<svg xmlns="http://www.w3.org/2000/svg" viewBox="0 0 120 120" fill="none" aria-hidden="true" focusable="false" data-zodiac="射手" data-element="fire">
  <g class="zodiac-lines" fill="none" stroke="currentColor" stroke-width="2" stroke-linecap="round" stroke-linejoin="round" stroke-opacity=".72">
    <path class="zodiac-line" data-step="1" pathLength="100" d="M39 43L68 38L79 60L60 80L35 70L39 43"/>
    <path class="zodiac-line" data-step="2" pathLength="100" d="M39 43L23 51L18 67L35 70"/>
    <path class="zodiac-line" data-step="3" pathLength="100" d="M79 60L100 51L89 70L79 60"/>
    <path class="zodiac-line" data-step="4" pathLength="100" d="M48 29L68 38"/>
  </g>
  <g class="zodiac-stars" fill="currentColor">
    <circle class="zodiac-star" data-step="1" cx="39" cy="43" r="2.8" opacity=".94"/>
    <circle class="zodiac-star" data-step="2" cx="68" cy="38" r="3.1" opacity=".98"/>
    <circle class="zodiac-star" data-step="3" cx="79" cy="60" r="2.7" opacity=".92"/>
    <circle class="zodiac-star" data-step="4" cx="60" cy="80" r="2.5" opacity=".88"/>
    <circle class="zodiac-star" data-step="5" cx="35" cy="70" r="2.4" opacity=".86"/>
    <circle class="zodiac-star" data-step="6" cx="23" cy="51" r="2" opacity=".74"/>
    <circle class="zodiac-star" data-step="7" cx="18" cy="67" r="2.1" opacity=".76"/>
    <circle class="zodiac-star" data-step="8" cx="100" cy="51" r="2.2" opacity=".8"/>
    <circle class="zodiac-star" data-step="9" cx="89" cy="70" r="2" opacity=".74"/>
    <circle class="zodiac-star" data-step="10" cx="48" cy="29" r="2.2" opacity=".8"/>
  </g>
</svg>
