<svg xmlns="http://www.w3.org/2000/svg" viewBox="0 0 120 120" fill="none" aria-hidden="true" focusable="false" data-zodiac="双鱼" data-element="water">
  <g class="zodiac-lines" fill="none" stroke="currentColor" stroke-width="2" stroke-linecap="round" stroke-linejoin="round" stroke-opacity=".72">
    <path class="zodiac-line" data-step="1" pathLength="100" d="M19 34L31 23L44 33L40 49L27 55L19 34"/>
    <path class="zodiac-line" data-step="2" pathLength="100" d="M40 49L58 57L73 68L84 66"/>
    <path class="zodiac-line" data-step="3" pathLength="100" d="M84 66L97 57L107 69L102 84L89 92L80 79L84 66"/>
  </g>
  <g class="zodiac-stars" fill="currentColor">
    <circle class="zodiac-star" data-step="1" cx="19" cy="34" r="2.2" opacity=".8"/>
    <circle class="zodiac-star" data-step="2" cx="31" cy="23" r="2.6" opacity=".9"/>
    <circle class="zodiac-star" data-step="3" cx="44" cy="33" r="2.2" opacity=".8"/>
    <circle class="zodiac-star" data-step="4" cx="40" cy="49" r="2.8" opacity=".94"/>
    <circle class="zodiac-star" data-step="5" cx="27" cy="55" r="2" opacity=".74"/>
    <circle class="zodiac-star" data-step="6" cx="58" cy="57" r="2.3" opacity=".84"/>
    <circle class="zodiac-star" data-step="7" cx="73" cy="68" r="2.4" opacity=".86"/>
    <circle class="zodiac-star" data-step="8" cx="84" cy="66" r="3.2" opacity="1"/>
    <circle class="zodiac-star" data-step="9" cx="97" cy="57" r="2.3" opacity=".84"/>
    <circle class="zodiac-star" data-step="10" cx="107" cy="69" r="2.1" opacity=".76"/>
    <circle class="zodiac-star" data-step="11" cx="102" cy="84" r="2.5" opacity=".88"/>
    <circle class="zodiac-star" data-step="12" cx="89" cy="92" r="2.7" opacity=".92"/>
    <circle class="zodiac-star" data-step="13" cx="80" cy="79" r="2" opacity=".74"/>
  </g>
</svg>
