<svg xmlns="http://www.w3.org/2000/svg" viewBox="0 0 120 120" fill="none" aria-hidden="true" focusable="false" data-zodiac="水瓶" data-element="wind">
  <g class="zodiac-lines" fill="none" stroke="currentColor" stroke-width="2" stroke-linecap="round" stroke-linejoin="round" stroke-opacity=".72">
    <path class="zodiac-line" data-step="1" pathLength="100" d="M17 32L35 23L52 37L68 25L85 38L103 28"/>
    <path class="zodiac-line" data-step="2" pathLength="100" d="M52 37L46 57L58 69L48 84L60 99"/>
    <path class="zodiac-line" data-step="3" pathLength="100" d="M68 25L72 52L85 63L75 78L88 92"/>
  </g>
  <g class="zodiac-stars" fill="currentColor">
    <circle class="zodiac-star" data-step="1" cx="17" cy="32" r="2.2" opacity=".8"/>
    <circle class="zodiac-star" data-step="2" cx="35" cy="23" r="2.5" opacity=".88"/>
    <circle class="zodiac-star" data-step="3" cx="52" cy="37" r="3" opacity=".98"/>
    <circle class="zodiac-star" data-step="4" cx="68" cy="25" r="3.2" opacity="1"/>
    <circle class="zodiac-star" data-step="5" cx="85" cy="38" r="2.6" opacity=".9"/>
    <circle class="zodiac-star" data-step="6" cx="103" cy="28" r="2" opacity=".74"/>
    <circle class="zodiac-star" data-step="7" cx="46" cy="57" r="2.1" opacity=".76"/>
    <circle class="zodiac-star" data-step="8" cx="58" cy="69" r="2.3" opacity=".82"/>
    <circle class="zodiac-star" data-step="9" cx="48" cy="84" r="2" opacity=".74"/>
    <circle class="zodiac-star" data-step="10" cx="60" cy="99" r="2.2" opacity=".8"/>
    <circle class="zodiac-star" data-step="11" cx="72" cy="52" r="2.1" opacity=".76"/>
    <circle class="zodiac-star" data-step="12" cx="85" cy="63" r="2.3" opacity=".82"/>
    <circle class="zodiac-star" data-step="13" cx="75" cy="78" r="2" opacity=".74"/>
    <circle class="zodiac-star" data-step="14" cx="88" cy="92" r="2.2" opacity=".8"/>
  </g>
</svg>
