<svg xmlns="http://www.w3.org/2000/svg" viewBox="0 0 120 120" fill="none" aria-hidden="true" focusable="false" data-zodiac="双子" data-element="wind">
  <g class="zodiac-lines" fill="none" stroke="currentColor" stroke-width="2" stroke-linecap="round" stroke-linejoin="round" stroke-opacity=".72">
    <path class="zodiac-line" data-step="1" pathLength="100" d="M33 21L38 42L43 65L28 95M43 65L54 95"/>
    <path class="zodiac-line" data-step="2" pathLength="100" d="M84 20L77 42L72 65L61 95M72 65L90 92"/>
    <path class="zodiac-line" data-step="3" pathLength="100" d="M38 42L77 42M43 65L72 65"/>
  </g>
  <g class="zodiac-stars" fill="currentColor">
    <circle class="zodiac-star" data-step="1" cx="33" cy="21" r="3.1" opacity=".98"/>
    <circle class="zodiac-star" data-step="2" cx="38" cy="42" r="2.3" opacity=".86"/>
    <circle class="zodiac-star" data-step="3" cx="43" cy="65" r="2.7" opacity=".92"/>
    <circle class="zodiac-star" data-step="4" cx="28" cy="95" r="2.1" opacity=".76"/>
    <circle class="zodiac-star" data-step="5" cx="54" cy="95" r="2" opacity=".74"/>
    <circle class="zodiac-star" data-step="6" cx="84" cy="20" r="3" opacity=".96"/>
    <circle class="zodiac-star" data-step="7" cx="77" cy="42" r="2.4" opacity=".86"/>
    <circle class="zodiac-star" data-step="8" cx="72" cy="65" r="2.7" opacity=".92"/>
    <circle class="zodiac-star" data-step="9" cx="61" cy="95" r="2" opacity=".74"/>
    <circle class="zodiac-star" data-step="10" cx="90" cy="92" r="2.2" opacity=".78"/>
  </g>
</svg>
