<svg xmlns="http://www.w3.org/2000/svg" viewBox="0 0 96 96" fill="none" stroke="currentColor" stroke-linecap="round">
  <circle cx="48" cy="48" r="31" stroke-width="1" opacity=".5"/>
  <circle cx="48" cy="48" r="17" stroke-width=".8" opacity=".42"/>
  <path d="M48 3v12M48 81v12M3 48h12M81 48h12M16.2 16.2l8.5 8.5M71.3 71.3l8.5 8.5M79.8 16.2l-8.5 8.5M24.7 71.3l-8.5 8.5" stroke-width="1.1"/>
  <path d="m48 40 2.1 5.9L56 48l-5.9 2.1L48 56l-2.1-5.9L40 48l5.9-2.1z" fill="currentColor" stroke="none"/>
  <path d="M20 60c13-18 43-23 58-7M29 24c17 7 31 27 33 48" stroke-width=".7" opacity=".45"/>
</svg>
