<svg xmlns="http://www.w3.org/2000/svg" viewBox="0 0 24 24" fill="none" stroke="currentColor" stroke-linecap="round" stroke-linejoin="round">
  <path d="M12 2.8a9.2 9.2 0 1 0 8.9 6.9" stroke-width="1.5" opacity=".55"/>
  <path d="M19 4.2v5.5h-5.5" stroke-width="1.6"/>
  <path d="M12 20.8c-3.7 0-6.4-2.2-6.4-5.4 0-2.5 1.7-4.1 3.8-6.6.1 1.9 1 2.8 1.9 3.3.3-3 1.9-4.4 3.4-5.5-.1 3.5 2.1 5 2.1 8.4 0 3.5-2.1 5.8-4.8 5.8Z" fill="currentColor" opacity=".12" stroke-width="1.35"/>
  <path d="M12 19.1c-1.5 0-2.5-1-2.5-2.3 0-1.2.8-1.9 1.8-3.1.1 1 .5 1.4 1 1.8.1-1.3.7-1.9 1.3-2.5 0 1.6.9 2.3.9 3.7 0 1.5-1 2.4-2.5 2.4Z" fill="currentColor" stroke="none"/>
</svg>
