<svg xmlns="http://www.w3.org/2000/svg" viewBox="0 0 24 24" fill="none" stroke="currentColor" stroke-linecap="round" stroke-linejoin="round">
  <path d="M8.5 20C4.8 17.4 3.2 13.5 4.2 8.2M15.5 20c3.7-2.6 5.3-6.5 4.3-11.8" stroke-width="1.45"/>
  <path d="M5 15.8 2.8 14M6.8 11.8 3.9 10.5M8 8.2 5.5 6M19 15.8l2.2-1.8M17.2 11.8l2.9-1.3M16 8.2 18.5 6" stroke-width="1.3"/>
  <circle cx="12" cy="11" r="3.5" stroke-width="1.45"/>
  <path d="m12 5.3.9 2.7 2.8.1-2.2 1.7.8 2.7-2.3-1.6-2.3 1.6.8-2.7-2.2-1.7 2.8-.1z" fill="currentColor" stroke="none" opacity=".75"/>
</svg>
