<svg xmlns="http://www.w3.org/2000/svg" viewBox="0 0 24 24" width="24" height="24" style="color:currentColor"><path d="M5 6.5 8.3 3l2.1 2.2h3.2L15.7 3 19 6.5v10L16 21H8l-3-4.5z" fill="currentColor" opacity=".12"/><g fill="none" stroke="currentColor" stroke-width="1.5" stroke-linecap="round" stroke-linejoin="round"><path d="M5 6.5 8.3 3l2.1 2.2h3.2L15.7 3 19 6.5v10L16 21H8l-3-4.5z"/><path d="M5.7 7.2h12.6"/><path d="M9.2 9.2c.5 4 1.6 6.9 2.8 8.7 1.3-1.8 2.4-4.7 2.8-8.7-.9.8-1.9 1.2-2.8 1.2s-1.9-.4-2.8-1.2z"/></g></svg>
