<svg xmlns="http://www.w3.org/2000/svg" viewBox="0 0 24 24" width="24" height="24" style="color:currentColor"><path d="M3.8 9.6c3.2-3.4 7.5-4.8 11.2-3.4 2.3.8 3.7 2.4 3.2 4.1-.5 1.8-2.8 2.5-4.7 1.5-1.4-.7-1.7-2.1-.5-3.2" fill="currentColor" opacity=".1"/><g fill="none" stroke="currentColor" stroke-width="1.5" stroke-linecap="round" stroke-linejoin="round"><path d="M3.8 9.6c3.2-3.4 7.5-4.8 11.2-3.4 2.3.8 3.7 2.4 3.2 4.1-.5 1.8-2.8 2.5-4.7 1.5-1.4-.7-1.7-2.1-.5-3.2"/><path d="M4.2 14.2c3.7-1.1 7.6-.3 10 2 1.2 1.1.7 2.8-.9 3.3-1.6.5-3.1-.3-3.8-1.5"/><path d="M3.8 18.3h2.8" opacity=".55"/></g></svg>
