<svg xmlns="http://www.w3.org/2000/svg" viewBox="0 0 24 24" width="24" height="24" style="color:currentColor"><path d="M12 2.8C10 6.8 5.6 10.8 5.6 15.2a6.4 6.4 0 0 0 12.8 0C18.4 10.8 14 6.8 12 2.8z" fill="currentColor" opacity=".12"/><g fill="none" stroke="currentColor" stroke-width="1.45" stroke-linecap="round" stroke-linejoin="round"><path d="M12 2.8C10 6.8 5.6 10.8 5.6 15.2a6.4 6.4 0 0 0 12.8 0C18.4 10.8 14 6.8 12 2.8z"/><path d="M7.8 14c1.3-1.2 2.8-1.2 4.2 0s2.9 1.2 4.2 0M8.4 17.2c1.2-.8 2.4-.8 3.6 0s2.4.8 3.6 0"/></g></svg>
