<svg xmlns="http://www.w3.org/2000/svg" viewBox="0 0 24 24" width="24" height="24" style="color:currentColor"><path d="M3.5 5h6.2c1.4 0 2.3.9 2.3 2.2V20c0-1.3-.9-2.2-2.3-2.2H3.5zm17 0h-6.2c-1.4 0-2.3.9-2.3 2.2V20c0-1.3.9-2.2 2.3-2.2h6.2z" fill="currentColor" opacity=".1"/><g fill="none" stroke="currentColor" stroke-width="1.45" stroke-linejoin="round"><path d="M3.5 5h6.2c1.4 0 2.3.9 2.3 2.2V20c0-1.3-.9-2.2-2.3-2.2H3.5zM20.5 5h-6.2c-1.4 0-2.3.9-2.3 2.2V20c0-1.3-.9-2.2-2.3-2.2h6.2z"/><path d="M15.4 8.8c.2-1 2.3-1 2.4.4.1 1.1-1.3 1.1-1.3 2.1M16.5 14.2h.01" stroke-linecap="round"/></g></svg>
