<svg xmlns="http://www.w3.org/2000/svg" viewBox="0 0 24 24" width="24" height="24" style="color:currentColor"><path d="M12 21s-7.6-4.6-7.6-10.2c0-3.5 2.3-5.7 5-5.7 1.1 0 2 .4 2.6 1.3.6-.9 1.5-1.3 2.6-1.3 2.7 0 5 2.2 5 5.7C19.6 16.4 12 21 12 21z" fill="currentColor" opacity=".13"/><g fill="none" stroke="currentColor" stroke-width="1.5" stroke-linecap="round" stroke-linejoin="round"><path d="M12 21s-7.6-4.6-7.6-10.2c0-3.5 2.3-5.7 5-5.7 1.1 0 2 .4 2.6 1.3.6-.9 1.5-1.3 2.6-1.3 2.7 0 5 2.2 5 5.7C19.6 16.4 12 21 12 21z"/><path d="m7.2 12 2.6-.1 1.3-3 2.1 6.1 1.5-3h2.2"/><path d="m9.4 5.2 2.6 8.9 2.6-9" opacity=".42"/></g></svg>
