<svg xmlns="http://www.w3.org/2000/svg" viewBox="0 0 24 24" width="24" height="24" style="color:currentColor"><path d="m12 2.8 1.7 5.5 5.5-1.7-2.7 5 4.7 3.2-5.7.5.4 5.7-3.9-4.1L8.1 21l.4-5.7-5.7-.5 4.7-3.2-2.7-5 5.5 1.7z" fill="currentColor" opacity=".12"/><g fill="none" stroke="currentColor" stroke-width="1.35" stroke-linejoin="round"><path d="m12 2.8 1.7 5.5 5.5-1.7-2.7 5 4.7 3.2-5.7.5.4 5.7-3.9-4.1L8.1 21l.4-5.7-5.7-.5 4.7-3.2-2.7-5 5.5 1.7z"/><path d="m8.6 15.4 6.8-6.8M8.1 11l4.9 4.9"/></g></svg>
