<svg xmlns="http://www.w3.org/2000/svg" viewBox="0 0 24 24" width="24" height="24" style="color:currentColor"><path d="m8 7 2.2 1.5L12 5l1.8 3.5L16 7l-.7 5H8.7z" fill="currentColor" opacity=".15"/><g fill="none" stroke="currentColor" stroke-width="1.4" stroke-linecap="round" stroke-linejoin="round"><path d="M7.5 20c-3-1.7-4.7-5-4.5-8.3M16.5 20c3-1.7 4.7-5 4.5-8.3M5.1 17.9l-2.9.3M18.9 17.9l2.9.3M4 14.5l-2.6-.8M20 14.5l2.6-.8"/><path d="m8 7 2.2 1.5L12 5l1.8 3.5L16 7l-.7 5H8.7zM8.8 12h6.4"/></g></svg>
