<svg xmlns="http://www.w3.org/2000/svg" viewBox="0 0 400 400" width="400" height="400" aria-hidden="true"><rect x="30" y="30" width="340" height="340" rx="22" fill="none" stroke="currentColor" stroke-width="12"/><path d="M56 90h82l62 92 62-92h82v220h-64V178l-80 112-80-112v132H56z" fill="currentColor" fill-opacity=".12" stroke="currentColor" stroke-width="10" stroke-linejoin="round"/><path d="M72 332c38-30 62 26 94-2 28-24 44-8 64 2 20 10 39 25 69-1 25-22 44-4 62 3" fill="none" stroke="currentColor" stroke-width="7" stroke-linecap="round"/><path d="M200 46l14 18-14 18-14-18zM200 318l12 14-12 14-12-14z" fill="currentColor"/><circle cx="58" cy="58" r="8" fill="currentColor"/><circle cx="342" cy="58" r="8" fill="currentColor"/></svg>
