<svg xmlns="http://www.w3.org/2000/svg" viewBox="0 0 480 32" width="480" height="32" aria-hidden="true"><path d="M8 16h132c24 0 30-9 47-9 13 0 21 6 29 9-8 3-16 9-29 9-17 0-23-9-47-9H8M472 16H340c-24 0-30-9-47-9-13 0-21 6-29 9 8 3 16 9 29 9 17 0 23-9 47-9h132" fill="none" stroke="currentColor" stroke-width="1.55" stroke-linecap="round"/><path d="M240 3l12 13-12 13-12-13z" fill="currentColor" fill-opacity=".14" stroke="currentColor" stroke-width="1.5"/><path d="M224 16h32M240 7v18" stroke="currentColor" stroke-width="1"/><circle cx="82" cy="16" r="2" fill="currentColor"/><circle cx="398" cy="16" r="2" fill="currentColor"/></svg>
