<svg xmlns="http://www.w3.org/2000/svg" viewBox="0 0 64 64" width="64" height="64" aria-hidden="true"><g transform="translate(64 0) scale(-1 1)"><path d="M5 59V20Q5 5 20 5H59" fill="none" stroke="currentColor" stroke-width="2.2" stroke-linecap="round"/><path d="M10 46C18 44 18 34 25 33c7-1 7 9 14 7 7-2 5-12 16-15" fill="none" stroke="currentColor" stroke-width="1.55" stroke-linecap="round"/><path d="M9 20h11V9M16 31l8-8 8 8-8 8zM38 12h10l4 4-4 4H38" fill="currentColor" fill-opacity=".11" stroke="currentColor" stroke-width="1.2"/><circle cx="8" cy="8" r="2.4" fill="currentColor"/><circle cx="55" cy="8" r="1.45" fill="currentColor"/></g></svg>
