<?xml version="1.0" encoding="UTF-8"?>
<svg xmlns="http://www.w3.org/2000/svg" viewBox="0 0 64 96" fill="none" stroke="currentColor" stroke-linecap="round" stroke-linejoin="round" aria-hidden="true" focusable="false">
  <path d="M32 3c-10.8 0-19.5 8.7-19.5 19.5 0 6.7 3.3 12.5 8.4 16L32 92.5l11.1-54c5.1-3.5 8.4-9.3 8.4-16C51.5 11.7 42.8 3 32 3Z" stroke-width="1.7"/>
  <path d="M32 9.5c-7.2 0-13 5.8-13 13 0 5 2.8 9.3 7 11.5l6 43 6-43c4.2-2.2 7-6.5 7-11.5 0-7.2-5.8-13-13-13Z" stroke-width="1.4" opacity=".62"/>
  <circle cx="32" cy="22.5" r="7.5" stroke-width="1.55"/>
  <path d="M32 11.5v22M21 22.5h22" stroke-width="1.35" opacity=".7"/>
  <path d="m32 16.5 2.2 3.8 4.3 2.2-4.3 2.2-2.2 3.8-2.2-3.8-4.3-2.2 4.3-2.2 2.2-3.8Z" fill="currentColor" stroke="none"/>
  <path d="m27.5 45 4.5-5.5 4.5 5.5M28.7 54.5l3.3-4 3.3 4M29.9 64l2.1-2.5 2.1 2.5" stroke-width="1.35" opacity=".72"/>
  <circle cx="32" cy="88" r="2.2" fill="currentColor" stroke="none"/>
</svg>
