<?xml version="1.0" encoding="UTF-8"?>
<svg xmlns="http://www.w3.org/2000/svg" viewBox="0 0 512 512" fill="none" stroke="currentColor" stroke-linecap="round" stroke-linejoin="round" aria-hidden="true" focusable="false">
  <circle cx="256" cy="256" r="246" stroke-width="1.7"/>
  <circle cx="256" cy="256" r="237" stroke-width="1.35" opacity=".52"/>
  <circle cx="256" cy="256" r="218" stroke-width="1.55" opacity=".84"/>
  <circle cx="256" cy="256" r="203" stroke-width="1.35" stroke-dasharray="1 7" opacity=".56"/>
  <circle cx="256" cy="256" r="181" stroke-width="1.55" opacity=".48"/>
  <circle cx="256" cy="256" r="145" stroke-width="1.4" opacity=".68"/>
  <circle cx="256" cy="256" r="98" stroke-width="1.55" opacity=".72"/>
  <circle cx="256" cy="256" r="36" stroke-width="1.55" opacity=".82"/>

  <g stroke-width="1.7">
    <path d="M256 10v18M256 484v18M10 256h18M484 256h18"/>
    <path d="M82.05 82.05l12.73 12.73M417.22 417.22l12.73 12.73M82.05 429.95l12.73-12.73M417.22 94.78l12.73-12.73"/>
  </g>
  <g stroke-width="1.45" opacity=".78">
    <path d="M305.98 15.12l-3.74 17.61M209.76 479.27l-3.74 17.61M496.88 305.98l-17.61-3.74M32.73 209.76l-17.61-3.74"/>
    <path d="M354.87 30.2l-7.32 16.43M164.45 465.37l-7.32 16.43M481.8 354.87l-16.43-7.32M46.63 164.45l-16.43-7.32"/>
    <path d="M399.14 55.45l-10.58 14.56M123.44 441.99l-10.58 14.56M456.55 399.14l-14.56-10.58M70.01 123.44l-14.56-10.58"/>
    <path d="M456.55 112.86l-14.56 10.58M70.01 388.56l-14.56 10.58M399.14 456.55l-10.58-14.56M123.44 70.01l-10.58-14.56"/>
    <path d="M481.8 157.13l-16.43 7.32M46.63 347.55l-16.43 7.32M354.87 481.8l-7.32-16.43M164.45 46.63l-7.32-16.43"/>
    <path d="M496.88 206.02l-17.61 3.74M32.73 302.24l-17.61 3.74M305.98 496.88l-3.74-17.61M209.76 32.73l-3.74-17.61"/>
  </g>
  <g stroke-width="1.35" opacity=".48">
    <path d="M281.23 12.3l-1.86 17.9M232.63 481.8l-1.86 17.9M499.7 281.23l-17.9-1.86M30.2 232.63l-17.9-1.86"/>
    <path d="M330.03 21.25l-5.56 17.12M187.53 473.63l-5.56 17.12M490.75 330.03l-17.12-5.56M38.37 187.53l-17.12-5.56"/>
    <path d="M376.18 40.12l-8.88 15.66M144.7 456.22l-8.88 15.66M471.88 376.18l-15.66-8.88M55.78 144.7l-15.66-8.88"/>
    <path d="M417.47 68.67l-11.88 13.52M106.41 429.81l-11.88 13.52M443.33 417.47l-13.52-11.88M82.19 106.41L68.67 94.53"/>
    <path d="M443.33 94.53l-13.52 11.88M82.19 405.59l-13.52 11.88M417.47 443.33l-11.88-13.52M106.41 82.19 94.53 68.67"/>
    <path d="M471.88 135.82l-15.66 8.88M55.78 367.3l-15.66 8.88M376.18 471.88l-8.88-15.66M144.7 55.78l-8.88-15.66"/>
    <path d="M490.75 181.97l-17.12 5.56M38.37 324.47l-17.12 5.56M330.03 490.75l-5.56-17.12M187.53 38.37l-5.56-17.12"/>
    <path d="M499.7 230.77l-17.9 1.86M30.2 279.37l-17.9 1.86M281.23 499.7l-1.86-17.9M232.63 30.2l-1.86-17.9"/>
  </g>

  <g stroke-width="1.35" opacity=".38">
    <path d="M74 256h364M256 74v364M127.3 127.3l257.4 257.4M127.3 384.7l257.4-257.4"/>
    <path d="m95 256 16-7 16 7-16 7-16-7ZM385 256l16-7 16 7-16 7-16-7ZM256 95l7 16-7 16-7-16 7-16ZM256 385l7 16-7 16-7-16 7-16Z"/>
  </g>

  <ellipse cx="256" cy="256" rx="174" ry="66" transform="rotate(-18 256 256)" stroke-width="1.55" opacity=".78"/>
  <ellipse cx="256" cy="256" rx="174" ry="66" transform="rotate(72 256 256)" stroke-width="1.35" opacity=".5"/>
  <ellipse cx="256" cy="256" rx="129" ry="45" transform="rotate(31 256 256)" stroke-width="1.45" opacity=".58"/>
  <path d="M113 188c31-50 83-82 143-82s112 32 143 82M113 324c31 50 83 82 143 82s112-32 143-82" stroke-width="1.35" stroke-dasharray="3 8" opacity=".52"/>

  <g stroke-width="1.55">
    <path d="M224 256h64M256 224v64" opacity=".75"/>
    <path d="m256 199 13 30 30 13-30 13-13 30-13-30-30-13 30-13 13-30Z"/>
    <path d="m256 221 8.5 21.5L286 251l-21.5 8.5L256 281l-8.5-21.5L226 251l21.5-8.5L256 221Z" opacity=".55"/>
    <circle cx="256" cy="251" r="10.5"/>
  </g>
  <circle cx="256" cy="251" r="3.4" fill="currentColor" stroke="none"/>

  <g fill="currentColor" stroke="none">
    <circle cx="99.7" cy="207.8" r="3.8"/>
    <circle cx="412.3" cy="304.2" r="3.8"/>
    <circle cx="291.7" cy="86.1" r="3.1"/>
    <circle cx="220.3" cy="425.9" r="3.1"/>
    <circle cx="354.1" cy="328.4" r="2.7"/>
    <circle cx="157.9" cy="183.6" r="2.7"/>
  </g>
  <g stroke-width="1.35" opacity=".68">
    <circle cx="99.7" cy="207.8" r="9"/>
    <circle cx="412.3" cy="304.2" r="9"/>
    <circle cx="291.7" cy="86.1" r="7"/>
    <circle cx="220.3" cy="425.9" r="7"/>
  </g>

  <g stroke-width="1.55" opacity=".85">
    <path d="M226 37h60l9 9-9 9h-60l-9-9 9-9ZM226 457h60l9 9-9 9h-60l-9-9 9-9Z"/>
    <path d="M37 226v60l9 9 9-9v-60l-9-9-9 9ZM457 226v60l9 9 9-9v-60l-9-9-9 9Z"/>
  </g>
  <path d="M176 51c24-9 50-14 80-14s56 5 80 14M176 461c24 9 50 14 80 14s56-5 80-14M51 176c-9 24-14 50-14 80s5 56 14 80M461 176c9 24 14 50 14 80s-5 56-14 80" stroke-width="1.35" opacity=".62"/>
</svg>
