<?xml version="1.0" encoding="UTF-8"?>
<svg xmlns="http://www.w3.org/2000/svg" viewBox="0 0 128 128" fill="none" stroke="currentColor" stroke-linecap="round" stroke-linejoin="round" aria-hidden="true" focusable="false">
  <circle cx="64" cy="64" r="52" stroke-width="3" opacity="0.28"/>
  <circle cx="64" cy="64" r="38" stroke-width="3" stroke-dasharray="12 7" opacity="0.52"/>
  <ellipse cx="64" cy="64" rx="50" ry="23" transform="rotate(-18 64 64)" stroke-width="3.5" opacity="0.65"/>
  <ellipse cx="64" cy="64" rx="24" ry="49" transform="rotate(28 64 64)" stroke-width="3" opacity="0.44"/>
  <path d="M64 7v11M64 110v11M7 64h11M110 64h11" stroke-width="4"/>
  <circle cx="105" cy="46" r="5.5" fill="currentColor" stroke="none"/>
  <circle cx="37" cy="96" r="4.5" fill="currentColor" stroke="none" opacity="0.82"/>
  <circle cx="71" cy="17" r="3.5" fill="currentColor" stroke="none" opacity="0.65"/>
  <path d="M50 39h28M50 89h28" stroke-width="4.5"/>
  <path d="M53 42c.5 9 4.2 14.9 11 21-6.8 6.1-10.5 12-11 23M75 42c-.5 9-4.2 14.9-11 21 6.8 6.1 10.5 12 11 23" stroke-width="3.6"/>
  <circle cx="64" cy="64" r="5.5" fill="currentColor" stroke="none"/>
</svg>
