<svg xmlns="http://www.w3.org/2000/svg" viewBox="0 0 512 512" fill="none" aria-hidden="true" focusable="false" data-element="water"><g class="element-ring-lines" fill="none" stroke="currentColor" stroke-linecap="round" stroke-linejoin="round"><path class="element-ring-line" pathLength="100" stroke-width="13" d="M67 289C78 150 209 69 334 113C418 143 463 241 425 323C392 395 307 438 231 411C170 389 137 329 156 275C177 217 243 189 298 211C337 227 353 273 333 307C309 348 250 350 224 314"/><path class="element-ring-line" pathLength="100" stroke-width="5" d="M92 221C139 119 276 76 377 143M116 365C201 447 350 426 413 332"/></g><g class="element-ring-particles" fill="currentColor"><circle cx="93" cy="173" r="11"/><circle cx="405" cy="187" r="8"/><circle cx="430" cy="356" r="13"/><circle cx="119" cy="416" r="7"/></g></svg>
