<svg xmlns="http://www.w3.org/2000/svg" viewBox="0 0 512 512" fill="none" aria-hidden="true" focusable="false" data-element="wind"><g class="element-ring-lines" fill="none" stroke="currentColor" stroke-linecap="round" stroke-linejoin="round"><path class="element-ring-line" pathLength="100" stroke-width="12" d="M61 279C107 128 278 59 410 142C325 119 231 151 180 218C137 274 144 342 187 393"/><path class="element-ring-line" pathLength="100" stroke-width="12" d="M115 398C228 484 398 421 443 287C383 353 292 372 218 342C156 316 121 256 126 199"/><path class="element-ring-line" pathLength="100" stroke-width="5" d="M94 183C175 78 335 77 422 174"/></g><g class="element-ring-particles" fill="currentColor"><path d="M85 116l34 7-21 27z"/><path d="M429 210l31 18-34 15z"/><path d="M330 432l28 22-36 8z"/><circle cx="72" cy="354" r="8"/></g></svg>
