<svg xmlns="http://www.w3.org/2000/svg" viewBox="0 0 512 512" fill="none" aria-hidden="true" focusable="false" data-element="fire"><g class="element-ring-lines" fill="none" stroke="currentColor" stroke-linecap="round" stroke-linejoin="round"><path class="element-ring-line" pathLength="100" stroke-width="13" d="M78 303C67 184 159 87 274 76C238 111 222 148 238 181C255 214 292 218 305 252C318 285 298 326 265 349C318 342 359 303 367 251C391 290 390 342 363 382C310 462 181 459 116 377"/><path class="element-ring-line" pathLength="100" stroke-width="5" d="M113 282C125 166 221 116 317 126M137 385C218 430 331 397 354 310"/></g><g class="element-ring-particles" fill="currentColor"><path d="M118 124l15 24-25 13-8-26z"/><path d="M379 128l18 20-21 18-14-22z"/><circle cx="414" cy="285" r="10"/><circle cx="83" cy="352" r="8"/></g></svg>
