<svg xmlns="http://www.w3.org/2000/svg" viewBox="0 0 512 512" fill="none" aria-hidden="true" focusable="false" data-element="earth"><g class="element-ring-lines" fill="none" stroke="currentColor" stroke-linecap="round" stroke-linejoin="round"><circle class="element-ring-line" pathLength="100" cx="256" cy="268" r="164" stroke-width="12" stroke-dasharray="15 10"/><path class="element-ring-line" pathLength="100" stroke-width="8" d="M256 268L82 361M256 268L157 448M256 268L302 469M256 268L431 397M256 268L464 229M256 268L358 73M256 268L201 61M256 268L61 154"/><path class="element-ring-line" pathLength="100" stroke-width="4" d="M120 342L149 303L179 328L159 369ZM337 365L369 323L407 368L370 397ZM330 136L365 111L386 151L353 172Z"/></g><g class="element-ring-particles" fill="currentColor"><path d="M83 91l39 13-17 42-42-16z"/><path d="M416 95l34 26-27 35-39-18z"/><path d="M432 410l25 19-29 29-31-26z"/></g></svg>
