<svg xmlns="http://www.w3.org/2000/svg" aria-hidden="true">
  <symbol id="mysk-stat-attack" viewBox="0 0 24 24"><path d="M5.1 20.2 16.5 3.1l2.4 1.7L9.2 21.7z" fill="currentColor" opacity=".14"/><g fill="none" stroke="currentColor" stroke-width="1.55" stroke-linecap="round" stroke-linejoin="round"><path d="M5.1 20.2 16.5 3.1l2.4 1.7L9.2 21.7z"/><path d="m8.5 15.2 4.8 3.3M4 20.6l3-4.1 2.8 2-3.1 3.9M15 5.8l2.4 1.7"/></g></symbol>
  <symbol id="mysk-stat-vitality" viewBox="0 0 24 24"><path d="M12 21s-7.6-4.6-7.6-10.2c0-3.5 2.3-5.7 5-5.7 1.1 0 2 .4 2.6 1.3.6-.9 1.5-1.3 2.6-1.3 2.7 0 5 2.2 5 5.7C19.6 16.4 12 21 12 21z" fill="currentColor" opacity=".13"/><g fill="none" stroke="currentColor" stroke-width="1.5" stroke-linecap="round" stroke-linejoin="round"><path d="M12 21s-7.6-4.6-7.6-10.2c0-3.5 2.3-5.7 5-5.7 1.1 0 2 .4 2.6 1.3.6-.9 1.5-1.3 2.6-1.3 2.7 0 5 2.2 5 5.7C19.6 16.4 12 21 12 21z"/><path d="m7.2 12 2.6-.1 1.3-3 2.1 6.1 1.5-3h2.2"/><path d="m9.4 5.2 2.6 8.9 2.6-9" opacity=".42"/></g></symbol>
  <symbol id="mysk-stat-speed" viewBox="0 0 24 24"><path d="M5 18.7C8.4 15 10.5 9.4 18.8 4.4c-1 7.6-5 13.4-13.8 14.3z" fill="currentColor" opacity=".12"/><g fill="none" stroke="currentColor" stroke-width="1.5" stroke-linecap="round" stroke-linejoin="round"><path d="M5 18.7C8.4 15 10.5 9.4 18.8 4.4c-1 7.6-5 13.4-13.8 14.3z"/><path d="M5.2 18.5 15 8.2M8.2 15.4l-4.7-.2M11.2 12.2l-5.3-.8M14.3 9l-4.7-1.1"/></g></symbol>
  <symbol id="mysk-stat-shield" viewBox="0 0 24 24"><path d="M12 2.8 19 5.5v5.7c0 4.6-2.9 8-7 10-4.1-2-7-5.4-7-10V5.5z" fill="currentColor" opacity=".14"/><g fill="none" stroke="currentColor" stroke-width="1.5" stroke-linejoin="round"><path d="M12 2.8 19 5.5v5.7c0 4.6-2.9 8-7 10-4.1-2-7-5.4-7-10V5.5z"/><path d="M12 5.8v11.9M6.2 10.6h11.6"/><path d="m8.6 8 3.4-2.2L15.4 8" opacity=".5"/></g></symbol>
  <symbol id="mysk-currency-coin" viewBox="0 0 24 24"><path d="M12 2.8 19.8 7v10L12 21.2 4.2 17V7z" fill="currentColor" opacity=".13"/><g fill="none" stroke="currentColor" stroke-width="1.45" stroke-linejoin="round"><path d="M12 2.8 19.8 7v10L12 21.2 4.2 17V7z"/><path d="M8.8 8.8h6.4v6.4H8.8z"/><path d="M12 2.8V7M19.8 7l-3.6 2.1M19.8 17l-3.6-2.1M12 21.2V17M4.2 17l3.6-2.1M4.2 7l3.6 2.1" opacity=".5"/></g></symbol>
  <symbol id="mysk-score-throne" viewBox="0 0 24 24"><path d="m4.2 8 4.3 3 3.5-7 3.5 7 4.3-3-1.2 10H5.4z" fill="currentColor" opacity=".14"/><g fill="none" stroke="currentColor" stroke-width="1.55" stroke-linecap="round" stroke-linejoin="round"><path d="m4.2 8 4.3 3 3.5-7 3.5 7 4.3-3-1.2 10H5.4z"/><path d="M6 15.3h12M6.5 21h11M8.5 18v3M15.5 18v3"/><circle cx="12" cy="12.6" r="1.4"/></g></symbol>
  <symbol id="mysk-rank-star" viewBox="0 0 24 24"><path d="m12 2.5 2.3 7.2 7.2 2.3-7.2 2.3-2.3 7.2-2.3-7.2L2.5 12l7.2-2.3z" fill="currentColor" opacity=".14"/><g fill="none" stroke="currentColor" stroke-width="1.4" stroke-linejoin="round"><path d="m12 2.5 2.3 7.2 7.2 2.3-7.2 2.3-2.3 7.2-2.3-7.2L2.5 12l7.2-2.3z"/><circle cx="12" cy="12" r="2.1"/></g></symbol>
  <symbol id="mysk-state-rage" viewBox="0 0 24 24"><path d="M12.2 21c-4.2 0-7.2-2.7-7.2-6.5 0-3.2 2.1-5.2 4.7-8.5.2 2.5 1.3 3.5 2.3 4.2.3-3.8 2.5-5.7 4.2-7.2-.1 4.7 2.8 6.5 2.8 10.9 0 4.2-2.8 7.1-6.8 7.1z" fill="currentColor" opacity=".14"/><g fill="none" stroke="currentColor" stroke-width="1.45" stroke-linecap="round" stroke-linejoin="round"><path d="M12.2 21c-4.2 0-7.2-2.7-7.2-6.5 0-3.2 2.1-5.2 4.7-8.5.2 2.5 1.3 3.5 2.3 4.2.3-3.8 2.5-5.7 4.2-7.2-.1 4.7 2.8 6.5 2.8 10.9 0 4.2-2.8 7.1-6.8 7.1z"/><path d="M12 18.8c-1.8 0-3.1-1.2-3.1-2.9 0-1.5 1-2.4 2.2-3.9.1 1.2.6 1.8 1.2 2.2.2-1.5.9-2.4 1.7-3.2 0 2 1.2 2.9 1.2 4.7 0 1.8-1.3 3.1-3.2 3.1z"/></g></symbol>
  <symbol id="mysk-action-move-front" viewBox="0 0 24 24"><path d="M14 7.2h4l2 2v5.6l-2 2h-4l-2-2V9.2z" fill="currentColor" opacity=".13"/><g fill="none" stroke="currentColor" stroke-width="1.5" stroke-linecap="round" stroke-linejoin="round"><path d="M4 4v16M14 7.2h4l2 2v5.6l-2 2h-4l-2-2V9.2zM18 17v2H9v-2M17 12H7M10.2 8.9 7 12l3.2 3.1"/></g></symbol>
  <symbol id="mysk-action-move-back" viewBox="0 0 24 24"><path d="M6 7.2h4l2 2v5.6l-2 2H6l-2-2V9.2z" fill="currentColor" opacity=".13"/><g fill="none" stroke="currentColor" stroke-width="1.5" stroke-linecap="round" stroke-linejoin="round"><path d="M20 4v16M6 7.2h4l2 2v5.6l-2 2H6l-2-2V9.2zM7 17v2h9v-2M7 12h10M13.8 8.9 17 12l-3.2 3.1"/></g></symbol>
  <symbol id="mysk-action-swap" viewBox="0 0 24 24"><g fill="none" stroke="currentColor" stroke-width="1.45" stroke-linecap="round" stroke-linejoin="round"><path d="M4 8h13l-2.8-2.8M20 16H7l2.8 2.8"/><path d="M5 12.5v3.8M19 7.7v3.8"/><path d="M2.8 18.8h4.4M16.8 13.2h4.4"/></g><circle cx="5" cy="12" r="2.4" fill="currentColor" opacity=".14"/><circle cx="19" cy="12" r="2.4" fill="currentColor" opacity=".14"/></symbol>
  <symbol id="mysk-action-sell" viewBox="0 0 24 24"><path d="M4.2 4.2h9.2v15.6H4.2z" fill="currentColor" opacity=".1"/><g fill="none" stroke="currentColor" stroke-width="1.45" stroke-linecap="round" stroke-linejoin="round"><path d="M4.2 4.2h9.2v15.6H4.2zM7.2 12h9.5M13.8 8.9l3.1 3.1-3.1 3.1"/><path d="M17.7 15.3 21 17v3.1l-3.3 1.7-3.3-1.7V17z"/><path d="M17 17.7h1.4v1.4H17z"/></g></symbol>
  <symbol id="mysk-action-undo" viewBox="0 0 24 24"><path d="M7.5 5 3.2 9.2l4.3 4.2V11h4.7c4.1 0 6.8 2.1 8.3 6.8-.2-7.2-3.5-10.3-8.3-10.3H7.5z" fill="currentColor" opacity=".13"/><g fill="none" stroke="currentColor" stroke-width="1.55" stroke-linecap="round" stroke-linejoin="round"><path d="M7.5 5 3.2 9.2l4.3 4.2V11h4.7c4.1 0 6.8 2.1 8.3 6.8-.2-7.2-3.5-10.3-8.3-10.3H7.5z"/><path d="M6.2 17.8h7.1" opacity=".55"/></g></symbol>
  <symbol id="mysk-action-refresh" viewBox="0 0 24 24"><path d="m12 8 4 4-4 4-4-4z" fill="currentColor" opacity=".14"/><g fill="none" stroke="currentColor" stroke-width="1.5" stroke-linecap="round" stroke-linejoin="round"><path d="M19.2 8.1A8 8 0 0 0 6.1 5.3L4 7.5M4.8 15.9a8 8 0 0 0 13.1 2.8l2.1-2.2"/><path d="M3.8 3.8 4 7.5l3.7-.1M20.2 20.2l-.2-3.7-3.7.1"/><path d="m12 8 4 4-4 4-4-4z"/></g></symbol>
  <symbol id="mysk-action-lock" viewBox="0 0 24 24"><path d="M5.2 10h13.6v11H5.2z" fill="currentColor" opacity=".13"/><g fill="none" stroke="currentColor" stroke-width="1.5" stroke-linejoin="round"><path d="M5.2 10h13.6v11H5.2zM8 10V7a4 4 0 0 1 8 0v3"/><path d="M12 13.2v4.5"/><circle cx="12" cy="13.2" r="1.1" fill="currentColor" stroke="none"/></g></symbol>
  <symbol id="mysk-action-unlock" viewBox="0 0 24 24"><path d="M5.2 10h13.6v11H5.2z" fill="currentColor" opacity=".13"/><g fill="none" stroke="currentColor" stroke-width="1.5" stroke-linejoin="round"><path d="M5.2 10h13.6v11H5.2zM8 10V7a4 4 0 0 1 7.2-2.4"/><path d="M12 13.2v4.5"/><circle cx="12" cy="13.2" r="1.1" fill="currentColor" stroke="none"/></g></symbol>
  <symbol id="mysk-action-tier-up" viewBox="0 0 24 24"><g fill="none" stroke="currentColor" stroke-width="1.5" stroke-linecap="round" stroke-linejoin="round"><path d="M3 19h6v-4h5v-4h5V6h2"/><path d="M15.8 5.5 19 2.5l3.2 3M19 2.8v8.3"/><path d="M3 21h18" opacity=".5"/></g></symbol>
  <symbol id="mysk-action-forge" viewBox="0 0 24 24"><path d="M4 12h13.5c0 3.4-2.1 5.5-5.5 5.5H7.5C5.4 17.5 4 15.4 4 12z" fill="currentColor" opacity=".13"/><g fill="none" stroke="currentColor" stroke-width="1.5" stroke-linecap="round" stroke-linejoin="round"><path d="M4 12h13.5c0 3.4-2.1 5.5-5.5 5.5H7.5C5.4 17.5 4 15.4 4 12zM8.2 17.5v3.2M13.5 17.5v3.2M5.8 20.7h10.1"/><path d="m13.2 3 1.3 2.7 2.9.4-2.1 2 .5 2.8-2.6-1.3-2.5 1.3.5-2.8-2.1-2 2.9-.4z"/></g></symbol>
  <symbol id="mysk-action-random" viewBox="0 0 24 24"><g fill="none" stroke="currentColor" stroke-width="1.5" stroke-linecap="round" stroke-linejoin="round"><path d="M3.5 6.5h3.2c5 0 5.2 11 10.6 11H21M17.6 14.2l3.4 3.3-3.4 3.3"/><path d="M3.5 17.5h3.2c2.2 0 3.5-2.1 4.7-4.4M13.5 8.7c1-1.4 2.1-2.2 3.8-2.2H21M17.6 3.2 21 6.5l-3.4 3.3"/></g></symbol>
  <symbol id="mysk-action-save" viewBox="0 0 24 24"><path d="M5 3.5h12.2L20 6.3v14.2H5z" fill="currentColor" opacity=".11"/><g fill="none" stroke="currentColor" stroke-width="1.45" stroke-linejoin="round"><path d="M5 3.5h12.2L20 6.3v14.2H5zM8 3.5v5h8v-5M8 20.5v-7h9v7"/><path d="m10.2 16.6 1.4 1.4 3.2-3.2"/></g></symbol>
  <symbol id="mysk-action-merge" viewBox="0 0 24 24"><path d="m4 7 4-4 4 4-4 4zm8 10 4-4 4 4-4 4z" fill="currentColor" opacity=".12"/><g fill="none" stroke="currentColor" stroke-width="1.45" stroke-linecap="round" stroke-linejoin="round"><path d="m4 7 4-4 4 4-4 4zM12 17l4-4 4 4-4 4zM8 11v3c0 1.7 1.3 3 3 3h1"/><path d="m10 14 2 3-2 3"/></g></symbol>
  <symbol id="mysk-nav-menu" viewBox="0 0 24 24"><path d="M4 4h4v16H4zM10 4h4v16h-4zM16 4h4v16h-4z" fill="currentColor" opacity=".11"/><g fill="none" stroke="currentColor" stroke-width="1.45" stroke-linejoin="round"><path d="M4 4h4v16H4zM10 4h4v16h-4zM16 4h4v16h-4z"/><path d="M5.5 7h1M11.5 7h1M17.5 7h1M5.5 17h1M11.5 17h1M17.5 17h1" opacity=".55"/></g></symbol>
  <symbol id="mysk-nav-back" viewBox="0 0 24 24"><g fill="none" stroke="currentColor" stroke-width="1.55" stroke-linecap="round" stroke-linejoin="round"><path d="M5 4v16M19 12H7M11 8l-4 4 4 4"/><path d="M5 4h4M5 20h4" opacity=".5"/></g></symbol>
  <symbol id="mysk-nav-next" viewBox="0 0 24 24"><g fill="none" stroke="currentColor" stroke-width="1.55" stroke-linecap="round" stroke-linejoin="round"><path d="M19 4v16M5 12h12M13 8l4 4-4 4"/><path d="M15 4h4M15 20h4" opacity=".5"/></g></symbol>
  <symbol id="mysk-nav-close" viewBox="0 0 24 24"><path d="m12 2.8 9.2 9.2-9.2 9.2L2.8 12z" fill="currentColor" opacity=".1"/><g fill="none" stroke="currentColor" stroke-width="1.5" stroke-linecap="round" stroke-linejoin="round"><path d="m12 2.8 9.2 9.2-9.2 9.2L2.8 12zM8.2 8.2l7.6 7.6M15.8 8.2l-7.6 7.6"/></g></symbol>
  <symbol id="mysk-play-fast" viewBox="0 0 24 24"><path d="m3.8 5.2 6.8 6.8-6.8 6.8zm7.2 0 6.8 6.8-6.8 6.8z" fill="currentColor" opacity=".12"/><g fill="none" stroke="currentColor" stroke-width="1.55" stroke-linejoin="round"><path d="m3.8 5.2 6.8 6.8-6.8 6.8zM11 5.2l6.8 6.8-6.8 6.8zM21 5v14"/></g></symbol>
  <symbol id="mysk-play-skip" viewBox="0 0 24 24"><path d="m4 5 11 7L4 19z" fill="currentColor" opacity=".12"/><g fill="none" stroke="currentColor" stroke-width="1.55" stroke-linejoin="round"><path d="m4 5 11 7L4 19zM19 5v14"/></g></symbol>
  <symbol id="mysk-state-crit" viewBox="0 0 24 24"><path d="m12 2.8 1.7 5.5 5.5-1.7-2.7 5 4.7 3.2-5.7.5.4 5.7-3.9-4.1L8.1 21l.4-5.7-5.7-.5 4.7-3.2-2.7-5 5.5 1.7z" fill="currentColor" opacity=".12"/><g fill="none" stroke="currentColor" stroke-width="1.35" stroke-linejoin="round"><path d="m12 2.8 1.7 5.5 5.5-1.7-2.7 5 4.7 3.2-5.7.5.4 5.7-3.9-4.1L8.1 21l.4-5.7-5.7-.5 4.7-3.2-2.7-5 5.5 1.7z"/><path d="m8.6 15.4 6.8-6.8M8.1 11l4.9 4.9"/></g></symbol>
  <symbol id="mysk-state-heal" viewBox="0 0 24 24"><g fill="none" stroke="currentColor" stroke-width="1.5" stroke-linecap="round" stroke-linejoin="round"><path d="M10.5 19.7S4.2 16 4.2 11.2c0-2.9 1.9-4.7 4.1-4.7 1 0 1.7.3 2.2 1M17.5 3v7M14 6.5h7"/><path d="M10.5 19.7s5.1-3 6.1-7.1"/></g></symbol>
  <symbol id="mysk-state-revive" viewBox="0 0 24 24"><path d="M12 20.7c-3.8 0-6.9-2.9-6.9-6.6 0-2.4 1.2-4.4 3.1-5.6" fill="none" stroke="currentColor" stroke-width="1.5" stroke-linecap="round"/><g fill="none" stroke="currentColor" stroke-width="1.5" stroke-linecap="round" stroke-linejoin="round"><path d="M8.4 4.8 8.2 8.5l-3.7-.2M15.6 4.1a7 7 0 0 1 3.3 5.9c0 2.6-1.4 4.9-3.5 6.1"/><path d="M12 17V7M8.6 10.4 12 7l3.4 3.4"/></g></symbol>
  <symbol id="mysk-state-win" viewBox="0 0 24 24"><path d="m8 7 2.2 1.5L12 5l1.8 3.5L16 7l-.7 5H8.7z" fill="currentColor" opacity=".15"/><g fill="none" stroke="currentColor" stroke-width="1.4" stroke-linecap="round" stroke-linejoin="round"><path d="M7.5 20c-3-1.7-4.7-5-4.5-8.3M16.5 20c3-1.7 4.7-5 4.5-8.3M5.1 17.9l-2.9.3M18.9 17.9l2.9.3M4 14.5l-2.6-.8M20 14.5l2.6-.8"/><path d="m8 7 2.2 1.5L12 5l1.8 3.5L16 7l-.7 5H8.7zM8.8 12h6.4"/></g></symbol>
  <symbol id="mysk-state-loss" viewBox="0 0 24 24"><g fill="none" stroke="currentColor" stroke-width="1.5" stroke-linecap="round" stroke-linejoin="round"><path d="M5 4.5h14v6.2c0 4.6-2.8 7.7-7 9.3-4.2-1.6-7-4.7-7-9.3z"/><path d="m15.8 4.5-2.4 5.2 2.2 2.2-4.8 4.4M7.5 8.5h3" opacity=".65"/></g></symbol>
  <symbol id="mysk-state-pierce" viewBox="0 0 24 24"><g fill="none" stroke="currentColor" stroke-width="1.5" stroke-linecap="round" stroke-linejoin="round"><path d="M3 12h16M14 7l5 5-5 5M7 5v14M10 7v10" opacity=".55"/><path d="M3 12h16"/></g></symbol>
  <symbol id="mysk-state-taunt" viewBox="0 0 24 24"><path d="M12 6 18 8v4.2c0 3.8-2.4 6.5-6 8-3.6-1.5-6-4.2-6-8V8z" fill="currentColor" opacity=".13"/><g fill="none" stroke="currentColor" stroke-width="1.45" stroke-linecap="round" stroke-linejoin="round"><path d="M12 6 18 8v4.2c0 3.8-2.4 6.5-6 8-3.6-1.5-6-4.2-6-8V8zM12 1.8v2M4.6 4.2l1.5 1.5M19.4 4.2l-1.5 1.5"/><path d="M9 11h6"/></g></symbol>
  <symbol id="mysk-sound-on" viewBox="0 0 24 24"><path d="M4 9h4l4-4v14l-4-4H4z" fill="currentColor" opacity=".13"/><g fill="none" stroke="currentColor" stroke-width="1.5" stroke-linecap="round" stroke-linejoin="round"><path d="M4 9h4l4-4v14l-4-4H4zM15 9a4 4 0 0 1 0 6M17.5 6.5a7.5 7.5 0 0 1 0 11"/></g></symbol>
  <symbol id="mysk-sound-off" viewBox="0 0 24 24"><path d="M4 9h4l4-4v14l-4-4H4z" fill="currentColor" opacity=".13"/><g fill="none" stroke="currentColor" stroke-width="1.5" stroke-linecap="round" stroke-linejoin="round"><path d="M4 9h4l4-4v14l-4-4H4zM16 9l5 5M21 9l-5 5"/></g></symbol>
  <symbol id="mysk-elem-wind" viewBox="0 0 24 24"><path d="M3.8 9.6c3.2-3.4 7.5-4.8 11.2-3.4 2.3.8 3.7 2.4 3.2 4.1-.5 1.8-2.8 2.5-4.7 1.5-1.4-.7-1.7-2.1-.5-3.2" fill="currentColor" opacity=".1"/><g fill="none" stroke="currentColor" stroke-width="1.5" stroke-linecap="round" stroke-linejoin="round"><path d="M3.8 9.6c3.2-3.4 7.5-4.8 11.2-3.4 2.3.8 3.7 2.4 3.2 4.1-.5 1.8-2.8 2.5-4.7 1.5-1.4-.7-1.7-2.1-.5-3.2"/><path d="M4.2 14.2c3.7-1.1 7.6-.3 10 2 1.2 1.1.7 2.8-.9 3.3-1.6.5-3.1-.3-3.8-1.5"/><path d="M3.8 18.3h2.8" opacity=".55"/></g></symbol>
  <symbol id="mysk-elem-fire" viewBox="0 0 24 24"><path d="m12 5.2 7.3 13.1H4.7z" fill="currentColor" opacity=".12"/><g fill="none" stroke="currentColor" stroke-width="1.5" stroke-linecap="round" stroke-linejoin="round"><path d="m12 5.2 7.3 13.1H4.7z"/><path d="m12 9.1 3 5.6H9z"/><path d="M12 2.2v2M5.8 4.7l1.5 1.5M18.2 4.7l-1.5 1.5"/></g></symbol>
  <symbol id="mysk-elem-earth" viewBox="0 0 24 24"><path d="m3.4 18.5 5.7-11 3.1 4.2 2.4-3.6 6 10.4z" fill="currentColor" opacity=".13"/><g fill="none" stroke="currentColor" stroke-width="1.5" stroke-linecap="round" stroke-linejoin="round"><path d="m3.4 18.5 5.7-11 3.1 4.2 2.4-3.6 6 10.4z"/><path d="M6.1 16.2h11.8M7.7 13.5h8.6M7.3 21h9.4"/></g></symbol>
  <symbol id="mysk-elem-water" viewBox="0 0 24 24"><path d="M12 2.8C10 6.8 5.6 10.8 5.6 15.2a6.4 6.4 0 0 0 12.8 0C18.4 10.8 14 6.8 12 2.8z" fill="currentColor" opacity=".12"/><g fill="none" stroke="currentColor" stroke-width="1.45" stroke-linecap="round" stroke-linejoin="round"><path d="M12 2.8C10 6.8 5.6 10.8 5.6 15.2a6.4 6.4 0 0 0 12.8 0C18.4 10.8 14 6.8 12 2.8z"/><path d="M7.8 14c1.3-1.2 2.8-1.2 4.2 0s2.9 1.2 4.2 0M8.4 17.2c1.2-.8 2.4-.8 3.6 0s2.4.8 3.6 0"/></g></symbol>
  <symbol id="mysk-bounty-wolf-fang" viewBox="0 0 24 24"><path d="M5 6.5 8.3 3l2.1 2.2h3.2L15.7 3 19 6.5v10L16 21H8l-3-4.5z" fill="currentColor" opacity=".12"/><g fill="none" stroke="currentColor" stroke-width="1.5" stroke-linecap="round" stroke-linejoin="round"><path d="M5 6.5 8.3 3l2.1 2.2h3.2L15.7 3 19 6.5v10L16 21H8l-3-4.5z"/><path d="M5.7 7.2h12.6"/><path d="M9.2 9.2c.5 4 1.6 6.9 2.8 8.7 1.3-1.8 2.4-4.7 2.8-8.7-.9.8-1.9 1.2-2.8 1.2s-1.9-.4-2.8-1.2z"/></g></symbol>
  <symbol id="mysk-state-shadow-echo" viewBox="0 0 24 24"><path d="M9 4h10l-3 3.5 3 3.5H9z" fill="currentColor" opacity=".13"/><g fill="none" stroke="currentColor" stroke-width="1.5" stroke-linecap="round" stroke-linejoin="round"><path d="M9 3v18M9 4h10l-3 3.5 3 3.5H9"/><path d="M4.5 5v14M4.5 6h6L8.6 8.8l1.9 2.8h-6" opacity=".45"/><path d="M6.4 21h4.8" opacity=".55"/></g></symbol>
  <symbol id="mysk-help-book" viewBox="0 0 24 24"><path d="M3.5 5h6.2c1.4 0 2.3.9 2.3 2.2V20c0-1.3-.9-2.2-2.3-2.2H3.5zm17 0h-6.2c-1.4 0-2.3.9-2.3 2.2V20c0-1.3.9-2.2 2.3-2.2h6.2z" fill="currentColor" opacity=".1"/><g fill="none" stroke="currentColor" stroke-width="1.45" stroke-linejoin="round"><path d="M3.5 5h6.2c1.4 0 2.3.9 2.3 2.2V20c0-1.3-.9-2.2-2.3-2.2H3.5zM20.5 5h-6.2c-1.4 0-2.3.9-2.3 2.2V20c0-1.3-.9-2.2-2.3-2.2h6.2z"/><path d="M15.4 8.8c.2-1 2.3-1 2.4.4.1 1.1-1.3 1.1-1.3 2.1M16.5 14.2h.01" stroke-linecap="round"/></g></symbol>
</svg>
