<svg xmlns="http://www.w3.org/2000/svg" viewBox="0 0 96 96" width="96" height="96" aria-hidden="true"><circle cx="48" cy="48" r="40" fill="currentColor" fill-opacity=".07" stroke="currentColor" stroke-width="2"/><path d="M48 4l6 8-6 8-6-8zM48 76l6 8-6 8-6-8z" fill="currentColor"/><path d="M25 64V31c11-5 19-2 23 5 4-7 12-10 23-5v33c-11-4-19-2-23 5-4-7-12-9-23-5z" fill="currentColor" fill-opacity=".10" stroke="currentColor" stroke-width="2.5"/><path d="M48 36v33M60 20l4 7 8 2-6 5 2 8-8-4-7 4 2-8-6-5 8-2z" fill="currentColor"/></svg>
