<svg xmlns="http://www.w3.org/2000/svg" viewBox="0 0 96 96" width="96" height="96" aria-hidden="true"><circle cx="48" cy="48" r="40" fill="currentColor" fill-opacity=".07" stroke="currentColor" stroke-width="2"/><path d="M48 4l6 8-6 8-6-8zM48 76l6 8-6 8-6-8z" fill="currentColor"/><path d="M20 50c12-13 20-12 28-2 8-10 16-11 28 2-9 0-14 5-19 13-4-7-7-10-9-10s-5 3-9 10c-5-8-10-13-19-13z" fill="currentColor" fill-opacity=".13" stroke="currentColor" stroke-width="2.5"/><path d="M35 29h26v21H35z" fill="none" stroke="currentColor" stroke-width="2.5"/></svg>
