<?xml version="1.0" encoding="UTF-8"?>
<svg xmlns="http://www.w3.org/2000/svg" viewBox="0 0 24 24" fill="none" stroke="currentColor" stroke-linecap="round" stroke-linejoin="round" aria-hidden="true" focusable="false">
  <circle cx="12" cy="12" r="9.25" stroke-width="1.45" opacity="0.5"/>
  <path d="M12 2.15v2.1M12 19.75v2.1M2.15 12h2.1M19.75 12h2.1" stroke-width="1.45"/>
  <path d="M12 5.05 17.3 7.2v4.25c0 3.5-2.05 6.1-5.3 7.55-3.25-1.45-5.3-4.05-5.3-7.55V7.2L12 5.05Z" stroke-width="1.45"/>
  <path d="M8.7 10c-1.3 0-2.3.9-2.3 2s1 2 2.3 2c2.7 0 3.9-4 6.6-4 1.3 0 2.3.9 2.3 2s-1 2-2.3 2c-2.7 0-3.9-4-6.6-4Z" stroke-width="1.35"/>
  <circle cx="12" cy="12" r="0.85" fill="currentColor" stroke="none"/>
</svg>
