<svg xmlns="http://www.w3.org/2000/svg" viewBox="0 0 24 24" width="24" height="24" style="color:currentColor"><path d="M4 12h13.5c0 3.4-2.1 5.5-5.5 5.5H7.5C5.4 17.5 4 15.4 4 12z" fill="currentColor" opacity=".13"/><g fill="none" stroke="currentColor" stroke-width="1.5" stroke-linecap="round" stroke-linejoin="round"><path d="M4 12h13.5c0 3.4-2.1 5.5-5.5 5.5H7.5C5.4 17.5 4 15.4 4 12zM8.2 17.5v3.2M13.5 17.5v3.2M5.8 20.7h10.1"/><path d="m13.2 3 1.3 2.7 2.9.4-2.1 2 .5 2.8-2.6-1.3-2.5 1.3.5-2.8-2.1-2 2.9-.4z"/></g></svg>
