<svg xmlns="http://www.w3.org/2000/svg" viewBox="0 0 24 24" width="24" height="24" style="color:currentColor"><path d="M12.2 21c-4.2 0-7.2-2.7-7.2-6.5 0-3.2 2.1-5.2 4.7-8.5.2 2.5 1.3 3.5 2.3 4.2.3-3.8 2.5-5.7 4.2-7.2-.1 4.7 2.8 6.5 2.8 10.9 0 4.2-2.8 7.1-6.8 7.1z" fill="currentColor" opacity=".14"/><g fill="none" stroke="currentColor" stroke-width="1.45" stroke-linecap="round" stroke-linejoin="round"><path d="M12.2 21c-4.2 0-7.2-2.7-7.2-6.5 0-3.2 2.1-5.2 4.7-8.5.2 2.5 1.3 3.5 2.3 4.2.3-3.8 2.5-5.7 4.2-7.2-.1 4.7 2.8 6.5 2.8 10.9 0 4.2-2.8 7.1-6.8 7.1z"/><path d="M12 18.8c-1.8 0-3.1-1.2-3.1-2.9 0-1.5 1-2.4 2.2-3.9.1 1.2.6 1.8 1.2 2.2.2-1.5.9-2.4 1.7-3.2 0 2 1.2 2.9 1.2 4.7 0 1.8-1.3 3.1-3.2 3.1z"/></g></svg>
