<svg xmlns="http://www.w3.org/2000/svg" width="96" height="24" viewBox="0 0 96 24" fill="none" color="currentColor"><g stroke="currentColor" stroke-linecap="round" stroke-linejoin="round"><path d="M1 12h12l8-8 10 6h13l4-8 4 8h13l10-6 8 8h12M1 12h12l8 8 10-6h13l4 8 4-8h13l10 6 8-8h12" stroke-width="1.7"/><path d="M48 2l3.2 6.8 7.3.8-5.4 5 1.5 7.2-6.6-3.6-6.6 3.6 1.5-7.2-5.4-5 7.3-.8z" fill="currentColor" fill-opacity=".24"/><path d="M22 5l3 5 6 2-6 2-3 5-3-5-6-2 6-2zM74 5l3 5 6 2-6 2-3 5-3-5-6-2 6-2z" fill="currentColor" fill-opacity=".16"/></g></svg>
