<svg xmlns="http://www.w3.org/2000/svg" width="160" height="56" viewBox="0 0 160 56" fill="none" color="currentColor"><g stroke="currentColor" stroke-linecap="round" stroke-linejoin="round"><path d="M2 49H94L111 40 126 18 141 40 158 49" stroke-width="2.3"/><path d="M10 41h80l19-10 17-27 17 27 15 9"/><path d="M126 8l5 12 13-2-8 10 8 10-13-2-5 12-5-12-13 2 8-10-8-10 13 2z" fill="currentColor" fill-opacity=".2"/><path d="M99 44Q112 32 126 40Q140 32 153 44M32 41l6 8 6-8M59 41l6 8 6-8" opacity=".68"/></g></svg>
